<svg id="click" xmlns="http://www.w3.org/2000/svg" width="50.404" height="50.401" viewBox="0 0 50.404 50.401">
  <path id="Trazado_534" data-name="Trazado 534" d="M25.2,0a25.2,25.2,0,0,0,0,50.4,25.9,25.9,0,0,0,4.62-.42L28.1,44.815a5.7,5.7,0,0,1-.8.651V42.4L23.394,30.7a5.666,5.666,0,0,1-.294-1.848v4.263a46.325,46.325,0,0,0-5.8.567,45.071,45.071,0,0,1-.735-6.426H23.1v1.6A5.808,5.808,0,0,1,28.876,23.1a6.18,6.18,0,0,1,1.848.294l11.571,3.864h3.8a11.339,11.339,0,0,1-.168,1.218l4.053,1.344a25.9,25.9,0,0,0,.42-4.62A25.221,25.221,0,0,0,25.2,0ZM23.1,37.318v8.148c-1.806-1.218-3.528-3.906-4.746-7.707a42.812,42.812,0,0,1,4.746-.441ZM7.56,13.839a32.7,32.7,0,0,0,5.628,2.016,47.762,47.762,0,0,0-.819,7.2H4.305A21.023,21.023,0,0,1,7.56,13.839ZM4.305,27.259h8.064a48.6,48.6,0,0,0,.819,7.287A32.7,32.7,0,0,0,7.56,36.562a20.919,20.919,0,0,1-3.255-9.3ZM16.674,44.374a20.952,20.952,0,0,1-6.405-4.431A25.324,25.324,0,0,1,14.2,38.62a27.427,27.427,0,0,0,2.478,5.754ZM14.2,11.781a25.324,25.324,0,0,1-3.927-1.323,20.952,20.952,0,0,1,6.405-4.431A27.426,27.426,0,0,0,14.2,11.781Zm8.9,11.277H16.569a44.2,44.2,0,0,1,.735-6.342,46.326,46.326,0,0,0,5.8.567Zm0-9.975a42.813,42.813,0,0,1-4.746-.441c1.218-3.8,2.94-6.489,4.746-7.707Zm4.2-8.148c1.806,1.218,3.528,3.906,4.746,7.707a42.813,42.813,0,0,1-4.746.441Zm0,18.123V17.283a46.326,46.326,0,0,0,5.8-.567,44.2,44.2,0,0,1,.735,6.342ZM33.727,6.027a20.952,20.952,0,0,1,6.405,4.431A25.324,25.324,0,0,1,36.2,11.781a27.426,27.426,0,0,0-2.478-5.754Zm4.305,17.031a47.762,47.762,0,0,0-.819-7.2,32.7,32.7,0,0,0,5.628-2.016A21.023,21.023,0,0,1,46.1,23.058Z" fill="#07604c"/>
  <path id="Trazado_535" data-name="Trazado 535" d="M21.225,36.1H21.19a1.573,1.573,0,0,1-1.457-1.077l-6.651-19.95a1.575,1.575,0,0,1,1.993-1.993l19.95,6.651a1.574,1.574,0,0,1,.067,2.963L26.14,26.139,22.7,35.092a1.575,1.575,0,0,1-1.47,1.01Z" transform="translate(14.301 14.299)" fill="#07604c"/>
</svg>
