<svg xmlns="http://www.w3.org/2000/svg" width="37.196" height="37.196" viewBox="0 0 37.196 37.196">
  <g id="codepen" transform="translate(-15 -15)">
    <path id="Trazado_6" data-name="Trazado 6" d="M33.6,15A18.6,18.6,0,1,0,52.2,33.6,18.6,18.6,0,0,0,33.6,15Zm0,34.142A15.543,15.543,0,1,1,49.141,33.6,15.561,15.561,0,0,1,33.6,49.142Z" fill="#fff"/>
    <path id="Trazado_7" data-name="Trazado 7" d="M127.512,112.393c0-.015-.006-.028-.008-.043s-.01-.056-.017-.083-.01-.032-.015-.048-.016-.048-.025-.072-.015-.033-.022-.048-.021-.044-.034-.065l-.028-.046c-.013-.021-.027-.041-.042-.06l-.034-.043c-.016-.018-.032-.036-.049-.053s-.026-.027-.039-.039-.037-.032-.056-.047l-.045-.034-.016-.012-10.511-7.007a.988.988,0,0,0-1.1,0L104.962,111.7l-.016.012-.044.034q-.029.023-.056.047c-.014.012-.027.025-.04.039s-.034.035-.049.053l-.034.043c-.015.019-.028.039-.041.06s-.019.03-.028.046-.023.043-.034.065-.015.032-.022.048-.018.048-.025.072-.011.031-.015.048-.012.055-.017.083-.006.028-.008.043a.95.95,0,0,0-.009.129v7.007a.967.967,0,0,0,.009.129c0,.014.005.028.008.042s.01.056.017.083.01.032.015.048.016.048.025.073.015.032.022.048.021.044.034.066l.028.045c.013.021.027.041.041.06s.022.029.034.043.032.036.049.053.026.027.04.039.037.032.056.047l.044.034.016.012,10.511,7.007a.986.986,0,0,0,1.1,0l10.511-7.007.016-.012.045-.034c.019-.015.038-.031.056-.047s.026-.025.039-.039.034-.035.049-.053.023-.028.034-.043.028-.039.042-.06l.028-.045c.012-.022.023-.044.034-.066s.015-.031.022-.048.018-.048.025-.073.011-.031.015-.048.012-.055.017-.083.006-.028.008-.042a1.038,1.038,0,0,0,.009-.129v-7.007A1.02,1.02,0,0,0,127.512,112.393Zm-10.5-5.032,7.743,5.162-3.459,2.314-4.285-2.866Zm-1.977,0v4.61l-4.284,2.866-3.459-2.314Zm-8.535,7.011,2.473,1.654-2.473,1.654Zm8.535,10.318-7.743-5.162,3.459-2.313,4.284,2.865Zm.988-6.326-3.5-2.338,3.5-2.338,3.5,2.338Zm.988,6.326v-4.61l4.285-2.865,3.459,2.313Zm8.534-7.01-2.472-1.654,2.472-1.654Z" transform="translate(-82.424 -82.427)" fill="#fff"/>
  </g>
</svg>
