<svg xmlns="http://www.w3.org/2000/svg" width="37.196" height="36.209" viewBox="0 0 37.196 36.209">
  <g id="github" transform="translate(-31.367 -32.932)">
    <path id="Trazado_5" data-name="Trazado 5" d="M68.563,51.53a18.6,18.6,0,1,0-24.65,17.59,1.783,1.783,0,0,0,.957-1.385c0-1.023-.022-3.654-.022-3.654a12.9,12.9,0,0,1-1.959.137,4.211,4.211,0,0,1-4.258-2.873,5.035,5.035,0,0,0-2.089-2.477c-.481-.31-.592-.675-.035-.779,2.569-.481,3.226,2.9,4.942,3.437a4.826,4.826,0,0,0,3.583-.286,3.705,3.705,0,0,1,1.475-2.395c-4.365-.417-6.952-1.925-8.294-4.348l-.144-.271-.337-.77-.1-.276a13.041,13.041,0,0,1-.606-4.212,7.187,7.187,0,0,1,2.051-5.337,7.451,7.451,0,0,1,.323-5.362s1.889-.39,5.46,2.154c1.935-.825,7.1-.894,9.538-.183,1.5-.985,4.239-2.383,5.345-1.992.3.479.945,1.877.392,4.947a8.638,8.638,0,0,1,2.334,6.164,15.951,15.951,0,0,1-.478,3.826l-.161.546s-.092.258-.193.5l-.118.271c-1.295,2.828-3.951,3.884-8.243,4.323,1.391.871,1.79,1.963,1.79,4.919s-.04,3.353-.03,4.033a1.876,1.876,0,0,0,.921,1.36A18.605,18.605,0,0,0,68.563,51.53Z" transform="translate(0)" fill="#fff"/>
  </g>
</svg>
