<svg xmlns="http://www.w3.org/2000/svg" width="55.194" height="40" viewBox="0 0 55.194 40">
  <g id="laptop" transform="translate(0 -70.472)">
    <g id="Grupo_14" data-name="Grupo 14" transform="translate(0 70.472)">
      <g id="Grupo_13" data-name="Grupo 13" transform="translate(0 0)">
        <path id="Trazado_530" data-name="Trazado 530" d="M54.374,103.095h-2.89V73.781a3.309,3.309,0,0,0-3.309-3.309H6.761a3.309,3.309,0,0,0-3.309,3.309v29.313H.82a.82.82,0,0,0-.82.82v1.81a4.747,4.747,0,0,0,4.747,4.747H35.63a.82.82,0,1,0,0-1.639H4.747a3.108,3.108,0,0,1-3.108-3.108v-.991H20.959A2.926,2.926,0,0,0,23.88,107.6h7.433a2.926,2.926,0,0,0,2.922-2.869h19.32v.991a3.108,3.108,0,0,1-3.108,3.108H39.456a.82.82,0,0,0,0,1.639H50.447a4.747,4.747,0,0,0,4.747-4.747v-1.81A.82.82,0,0,0,54.374,103.095Zm-23.061,2.869H23.88a1.285,1.285,0,0,1-1.282-1.229h10A1.285,1.285,0,0,1,31.313,105.964Zm18.531-2.869H5.091V73.781a1.672,1.672,0,0,1,1.67-1.67H48.174a1.672,1.672,0,0,1,1.67,1.67Z" transform="translate(0 -70.472)"/>
      </g>
    </g>
    <g id="Grupo_16" data-name="Grupo 16" transform="translate(6.034 73.308)">
      <g id="Grupo_15" data-name="Grupo 15">
        <path id="Trazado_531" data-name="Trazado 531" d="M102.45,98.86H69.957a.763.763,0,1,0,0,1.519h31.654v23.041H62.08V100.379h3.962a.763.763,0,1,0,0-1.519h-4.8a.8.8,0,0,0-.839.76v24.56a.8.8,0,0,0,.839.76H102.45a.8.8,0,0,0,.839-.76V99.62A.8.8,0,0,0,102.45,98.86Z" transform="translate(-60.403 -98.86)"/>
      </g>
    </g>
  </g>
</svg>
