<svg xmlns="http://www.w3.org/2000/svg" width="24" height="40" viewBox="0 0 24 40">
  <g id="smartphone" transform="translate(-102.4)">
    <g id="Grupo_18" data-name="Grupo 18" transform="translate(113.244 3.167)">
      <g id="Grupo_17" data-name="Grupo 17" transform="translate(0)">
        <path id="Trazado_532" data-name="Trazado 532" d="M243.683,42.667h-3.8a.95.95,0,0,0,0,1.9h3.8a.95.95,0,1,0,0-1.9Z" transform="translate(-238.933 -42.667)"/>
      </g>
    </g>
    <g id="Grupo_20" data-name="Grupo 20" transform="translate(102.4)">
      <g id="Grupo_19" data-name="Grupo 19" transform="translate(0)">
        <path id="Trazado_533" data-name="Trazado 533" d="M122.4,0h-16a4,4,0,0,0-4,4V36a4,4,0,0,0,4,4h16a4,4,0,0,0,4-4V4A4,4,0,0,0,122.4,0Zm2,36a2,2,0,0,1-2,2h-16a2,2,0,0,1-2-2V4a2,2,0,0,1,2-2h16a2,2,0,0,1,2,2Z" transform="translate(-102.4)"/>
      </g>
    </g>
    <g id="Grupo_22" data-name="Grupo 22" transform="translate(112.5 33.033)">
      <g id="Grupo_21" data-name="Grupo 21" transform="translate(0)">
        <circle id="Elipse_2" data-name="Elipse 2" cx="1.9" cy="1.9" r="1.9"/>
      </g>
    </g>
    <g id="Grupo_24" data-name="Grupo 24" transform="translate(109.767 3.167)">
      <g id="Grupo_23" data-name="Grupo 23" transform="translate(0)">
        <circle id="Elipse_3" data-name="Elipse 3" cx="0.95" cy="0.95" r="0.95"/>
      </g>
    </g>
  </g>
</svg>
